<?xml version="1.0" encoding="UTF-8" standalone="no"?>
<!-- Created with Inkscape (http://www.inkscape.org/) -->

<svg
   xmlns:dc="http://purl.org/dc/elements/1.1/"
   xmlns:cc="http://creativecommons.org/ns#"
   xmlns:rdf="http://www.w3.org/1999/02/22-rdf-syntax-ns#"
   xmlns:svg="http://www.w3.org/2000/svg"
   xmlns="http://www.w3.org/2000/svg"
   xmlns:sodipodi="http://sodipodi.sourceforge.net/DTD/sodipodi-0.dtd"
   xmlns:inkscape="http://www.inkscape.org/namespaces/inkscape"
   id="svg4136"
   version="1.1"
   inkscape:version="0.91 r13725"
   width="15"
   height="15"
   viewBox="0 0 15 15"
   sodipodi:docname="icon.svg">
  <metadata
     id="metadata4142">
    <rdf:RDF>
      <cc:Work
         rdf:about="">
        <dc:format>image/svg+xml</dc:format>
        <dc:type
           rdf:resource="http://purl.org/dc/dcmitype/StillImage" />
        <dc:title></dc:title>
      </cc:Work>
    </rdf:RDF>
  </metadata>
  <defs
     id="defs4140" />
  <sodipodi:namedview
     pagecolor="#ffffff"
     bordercolor="#666666"
     borderopacity="1"
     objecttolerance="10"
     gridtolerance="10"
     guidetolerance="10"
     inkscape:pageopacity="0"
     inkscape:pageshadow="2"
     inkscape:window-width="2560"
     inkscape:window-height="1061"
     id="namedview4138"
     showgrid="false"
     inkscape:zoom="59.533333"
     inkscape:cx="7.5"
     inkscape:cy="7.5"
     inkscape:window-x="-4"
     inkscape:window-y="-4"
     inkscape:window-maximized="1"
     inkscape:current-layer="svg4136" />
  <path
     style="fill:#000000"
     d="m 0.9375,11.71875 c 0,-1.289062 0.421875,-2.34375 0.9375,-2.34375 0.515625,0 0.9375,0.632813 0.9375,1.40625 0,0.773438 0.6328125,1.40625 1.40625,1.40625 0.7734375,0 1.40625,0.421875 1.40625,0.9375 0,0.515625 -1.0546875,0.9375 -2.34375,0.9375 -1.875,0 -2.34375,-0.46875 -2.34375,-2.34375 z m 11.25,-7.5 C 12.1875,3.4453125 11.554688,2.8125 10.78125,2.8125 10.007813,2.8125 9.375,2.390625 9.375,1.875 c 0,-0.515625 1.054688,-0.9375 2.34375,-0.9375 1.875,0 2.34375,0.46875 2.34375,2.34375 0,1.2890625 -0.421875,2.34375 -0.9375,2.34375 -0.515625,0 -0.9375,-0.6328125 -0.9375,-1.40625 z"
     id="path4146"
     inkscape:connector-curvature="0" />
</svg>
